<svg xmlns="http://www.w3.org/2000/svg" xmlns:xlink="http://www.w3.org/1999/xlink" width="800" zoomAndPan="magnify" viewBox="0 0 600 599.999999" height="800" preserveAspectRatio="xMidYMid meet" version="1.2"><defs/><g id="a4c6678fd3"><g style="fill:#000000;fill-opacity:1;"><g transform="translate(275.109017, 234.597967)"><path style="stroke:none" d="M 0.65625 -13.765625 L 0.65625 -18.515625 L 11.15625 -18.515625 L 11.15625 -13.765625 L 10.75 -13.765625 L 9.1875 -18.03125 L 7.09375 -18.03125 L 7.09375 -0.5 L 8.921875 -0.5 L 8.921875 0 L 2.875 0 L 2.875 -0.5 L 4.734375 -0.5 L 4.734375 -18.03125 L 2.59375 -18.03125 L 1.0625 -13.765625 Z M 0.65625 -13.765625 "/></g></g><g style="fill:#000000;fill-opacity:1;"><g transform="translate(286.383825, 234.597967)"><path style="stroke:none" d=""/></g></g><g style="fill:#000000;fill-opacity:1;"><g transform="translate(292.486451, 234.597967)"><path style="stroke:none" d="M 10.015625 -9.359375 L 4.765625 -9.359375 L 4.765625 -0.5 L 6.34375 -0.5 L 6.34375 0 L 0.6875 0 L 0.6875 -0.5 L 2.40625 -0.5 L 2.40625 -18.03125 L 0.6875 -18.03125 L 0.6875 -18.515625 L 6.34375 -18.515625 L 6.34375 -18.03125 L 4.765625 -18.03125 L 4.765625 -9.84375 L 10.015625 -9.84375 L 10.015625 -18.03125 L 8.421875 -18.03125 L 8.421875 -18.515625 L 14.09375 -18.515625 L 14.09375 -18.03125 L 12.359375 -18.03125 L 12.359375 -0.5 L 14.09375 -0.5 L 14.09375 0 L 8.421875 0 L 8.421875 -0.5 L 10.015625 -0.5 Z M 10.015625 -9.359375 "/></g></g><g style="fill:#000000;fill-opacity:1;"><g transform="translate(307.264109, 234.597967)"><path style="stroke:none" d=""/></g></g><g style="fill:#000000;fill-opacity:1;"><g transform="translate(313.366735, 234.597967)"><path style="stroke:none" d="M 8.734375 -0.5 L 10.203125 -4.515625 L 10.609375 -4.515625 L 10.609375 0 L 0.6875 0 L 0.6875 -0.5 L 2.40625 -0.5 L 2.40625 -18.03125 L 0.6875 -18.03125 L 0.6875 -18.515625 L 10.09375 -18.515625 L 10.09375 -14.390625 L 9.6875 -14.390625 L 8.15625 -18.03125 L 4.765625 -18.03125 L 4.765625 -9.65625 L 7.71875 -9.65625 L 8.640625 -12.390625 L 9.0625 -12.390625 L 9.0625 -6.40625 L 8.640625 -6.40625 L 7.71875 -9.171875 L 4.765625 -9.171875 L 4.765625 -0.5 Z M 8.734375 -0.5 "/></g></g><g style="fill:#000000;fill-opacity:1;"><g transform="translate(-2.947633, 344.625005)"><path style="stroke:none" d="M 37.9375 -50.6875 C 44.84375 -50.03125 50.1875 -47.738281 53.96875 -43.8125 C 57.75 -39.894531 59.640625 -34.53125 59.640625 -27.71875 C 59.640625 -18.757812 57.539062 -11.898438 53.34375 -7.140625 C 49.144531 -2.378906 43.171875 0 35.421875 0 L 3.5 0 L 3.5 -2.515625 L 12.3125 -2.515625 L 12.3125 -92.265625 L 3.5 -92.265625 L 3.5 -94.78125 L 34.15625 -94.78125 C 41.34375 -94.78125 46.78125 -92.957031 50.46875 -89.3125 C 54.15625 -85.675781 56 -80.3125 56 -73.21875 C 56 -67.25 54.484375 -62.28125 51.453125 -58.3125 C 48.421875 -54.34375 43.914062 -51.800781 37.9375 -50.6875 Z M 24.359375 -92.265625 L 24.359375 -51.515625 L 30.234375 -51.515625 C 34.441406 -51.515625 37.734375 -53.5 40.109375 -57.46875 C 42.492188 -61.4375 43.6875 -66.734375 43.6875 -73.359375 C 43.6875 -85.960938 39.4375 -92.265625 30.9375 -92.265625 Z M 32.34375 -2.515625 C 36.914062 -2.515625 40.484375 -4.660156 43.046875 -8.953125 C 45.617188 -13.253906 46.90625 -19.085938 46.90625 -26.453125 C 46.90625 -33.828125 45.550781 -39.425781 42.84375 -43.25 C 40.132812 -47.082031 36.210938 -49 31.078125 -49 L 24.359375 -49 L 24.359375 -2.515625 Z M 32.34375 -2.515625 "/></g></g><g style="fill:#000000;fill-opacity:1;"><g transform="translate(60.608799, 344.625005)"><path style="stroke:none" d="M 56.703125 -2.515625 L 61.734375 -2.515625 L 61.734375 0 L 35.984375 0 L 35.984375 -2.515625 L 44.234375 -2.515625 L 37.65625 -32.34375 L 15.40625 -32.34375 L 8.6875 -2.515625 L 19.59375 -2.515625 L 19.59375 0 L 0.703125 0 L 0.703125 -2.515625 L 5.734375 -2.515625 L 25.203125 -88.484375 L 23.796875 -94.78125 L 36.265625 -94.78125 Z M 15.953125 -34.859375 L 37.09375 -34.859375 L 26.59375 -82.1875 Z M 15.953125 -34.859375 "/></g></g><g style="fill:#000000;fill-opacity:1;"><g transform="translate(120.525392, 344.625005)"><path style="stroke:none" d="M 86.796875 -10.78125 L 87.921875 -9.375 C 78.023438 -1.914062 66.960938 1.8125 54.734375 1.8125 C 48.109375 1.8125 41.851562 0.832031 35.96875 -1.125 C 30.09375 -3.082031 24.796875 -5.972656 20.078125 -9.796875 C 15.367188 -13.628906 11.640625 -18.71875 8.890625 -25.0625 C 6.140625 -31.40625 4.765625 -38.640625 4.765625 -46.765625 C 4.765625 -57.398438 7.234375 -66.566406 12.171875 -74.265625 C 17.117188 -81.960938 23.488281 -87.628906 31.28125 -91.265625 C 39.082031 -94.910156 47.695312 -96.734375 57.125 -96.734375 C 66.550781 -96.734375 75.835938 -94.914062 84.984375 -91.28125 L 84.984375 -70.421875 L 82.875 -70.421875 L 71.6875 -92.6875 C 67.289062 -93.800781 62.484375 -94.359375 57.265625 -94.359375 C 45.035156 -94.359375 35.515625 -90.273438 28.703125 -82.109375 C 21.890625 -73.941406 18.484375 -62.390625 18.484375 -47.453125 C 18.484375 -32.523438 21.910156 -21.046875 28.765625 -13.015625 C 35.628906 -4.992188 44.613281 -0.984375 55.71875 -0.984375 C 67.757812 -0.984375 78.117188 -4.25 86.796875 -10.78125 Z M 86.796875 -10.78125 "/></g></g><g style="fill:#000000;fill-opacity:1;"><g transform="translate(209.980397, 344.625005)"><path style="stroke:none" d="M 24.359375 -92.265625 L 24.359375 -2.515625 L 32.34375 -2.515625 L 32.34375 0 L 3.5 0 L 3.5 -2.515625 L 12.3125 -2.515625 L 12.3125 -92.265625 L 3.5 -92.265625 L 3.5 -94.78125 L 33.1875 -94.78125 L 33.1875 -92.265625 Z M 61.875 -2.515625 L 68.59375 -2.515625 L 68.59375 0 L 41.859375 0 L 41.859375 -2.515625 L 48.015625 -2.515625 L 27.859375 -47.59375 L 51.375 -92.265625 L 42.421875 -92.265625 L 42.421875 -94.78125 L 62.296875 -94.78125 L 62.296875 -92.265625 L 54.3125 -92.265625 L 36.40625 -57.8125 Z M 61.875 -2.515625 "/></g></g><g style="fill:#000000;fill-opacity:1;"><g transform="translate(277.596621, 344.625005)"><path style="stroke:none" d="M 60.34375 -2.515625 L 67.625 -2.515625 L 67.625 0 L 47.875 0 L 40.875 -31.640625 C 39.476562 -37.054688 37.726562 -40.976562 35.625 -43.40625 C 33.53125 -45.832031 30.707031 -47.046875 27.15625 -47.046875 L 24.359375 -47.046875 L 24.359375 -2.515625 L 32.484375 -2.515625 L 32.484375 0 L 3.5 0 L 3.5 -2.515625 L 12.3125 -2.515625 L 12.3125 -92.265625 L 3.5 -92.265625 L 3.5 -94.78125 L 32.0625 -94.78125 C 40.175781 -94.78125 46.285156 -92.75 50.390625 -88.6875 C 54.503906 -84.625 56.5625 -79.375 56.5625 -72.9375 C 56.5625 -65.46875 54.503906 -59.632812 50.390625 -55.4375 C 46.285156 -51.238281 41.015625 -48.8125 34.578125 -48.15625 C 44.285156 -46.664062 50.492188 -40.738281 53.203125 -30.375 Z M 24.359375 -92.265625 L 24.359375 -49.5625 L 29.953125 -49.5625 C 34.066406 -49.5625 37.3125 -51.40625 39.6875 -55.09375 C 42.070312 -58.78125 43.265625 -64.351562 43.265625 -71.8125 C 43.265625 -85.445312 38.644531 -92.265625 29.40625 -92.265625 Z M 24.359375 -92.265625 "/></g></g><g style="fill:#000000;fill-opacity:1;"><g transform="translate(341.572982, 344.625005)"><path style="stroke:none" d="M 55.015625 1.8125 C 40.179688 1.8125 28.097656 -2.734375 18.765625 -11.828125 C 9.429688 -20.929688 4.765625 -32.757812 4.765625 -47.3125 C 4.765625 -61.96875 9.429688 -73.867188 18.765625 -83.015625 C 28.097656 -92.160156 40.226562 -96.734375 55.15625 -96.734375 C 70.09375 -96.734375 82.25 -92.160156 91.625 -83.015625 C 101.007812 -73.867188 105.703125 -62.0625 105.703125 -47.59375 C 105.703125 -32.945312 100.988281 -21.050781 91.5625 -11.90625 C 82.132812 -2.757812 69.953125 1.8125 55.015625 1.8125 Z M 55.296875 -0.421875 C 66.398438 -0.421875 75.3125 -4.710938 82.03125 -13.296875 C 88.757812 -21.890625 92.125 -33.226562 92.125 -47.3125 C 92.125 -61.6875 88.757812 -73.144531 82.03125 -81.6875 C 75.3125 -90.226562 66.351562 -94.5 55.15625 -94.5 C 44.050781 -94.5 35.140625 -90.226562 28.421875 -81.6875 C 21.703125 -73.144531 18.34375 -61.78125 18.34375 -47.59375 C 18.34375 -33.40625 21.703125 -21.992188 28.421875 -13.359375 C 35.140625 -4.734375 44.097656 -0.421875 55.296875 -0.421875 Z M 55.296875 -0.421875 "/></g></g><g style="fill:#000000;fill-opacity:1;"><g transform="translate(404.799563, 344.625005)"><path style="stroke:none" d="M 55.015625 1.8125 C 40.179688 1.8125 28.097656 -2.734375 18.765625 -11.828125 C 9.429688 -20.929688 4.765625 -32.757812 4.765625 -47.3125 C 4.765625 -61.96875 9.429688 -73.867188 18.765625 -83.015625 C 28.097656 -92.160156 40.226562 -96.734375 55.15625 -96.734375 C 70.09375 -96.734375 82.25 -92.160156 91.625 -83.015625 C 101.007812 -73.867188 105.703125 -62.0625 105.703125 -47.59375 C 105.703125 -32.945312 100.988281 -21.050781 91.5625 -11.90625 C 82.132812 -2.757812 69.953125 1.8125 55.015625 1.8125 Z M 55.296875 -0.421875 C 66.398438 -0.421875 75.3125 -4.710938 82.03125 -13.296875 C 88.757812 -21.890625 92.125 -33.226562 92.125 -47.3125 C 92.125 -61.6875 88.757812 -73.144531 82.03125 -81.6875 C 75.3125 -90.226562 66.351562 -94.5 55.15625 -94.5 C 44.050781 -94.5 35.140625 -90.226562 28.421875 -81.6875 C 21.703125 -73.144531 18.34375 -61.78125 18.34375 -47.59375 C 18.34375 -33.40625 21.703125 -21.992188 28.421875 -13.359375 C 35.140625 -4.734375 44.097656 -0.421875 55.296875 -0.421875 Z M 55.296875 -0.421875 "/></g></g><g style="fill:#000000;fill-opacity:1;"><g transform="translate(513.853434, 344.625005)"><path style="stroke:none" d="M 84.984375 -92.265625 L 76.15625 -92.265625 L 76.15625 -2.515625 L 84.984375 -2.515625 L 84.984375 0 L 55.296875 0 L 55.296875 -2.515625 L 64.125 -2.515625 L 64.125 -82.734375 L 40.3125 0.84375 L 38.5 0.84375 L 15.125 -78.6875 L 15.125 -2.515625 L 25.34375 -2.515625 L 25.34375 0 L 3.5 0 L 3.5 -2.515625 L 12.3125 -2.515625 L 12.3125 -86.796875 L 10.640625 -92.265625 L 3.5 -92.265625 L 3.5 -94.78125 L 23.09375 -94.78125 L 43.953125 -21.84375 L 64.546875 -94.78125 L 84.984375 -94.78125 Z M 84.984375 -92.265625 "/></g></g></g></svg>